<?xml version="1.0" encoding="UTF-8"?>
<svg version="1.1" xmlns="http://www.w3.org/2000/svg" width="1024" height="1024">
<path d="M0 0 C337.92 0 675.84 0 1024 0 C1024 337.92 1024 675.84 1024 1024 C686.08 1024 348.16 1024 0 1024 C0 686.08 0 348.16 0 0 Z " fill="#FEFEFE" transform="translate(0,0)"/>
<path d="M0 0 C9.1194007 3.71339554 17.50973393 9.1649821 25.875 14.3125 C27.11590175 15.0727787 28.35686902 15.83295048 29.59790039 16.59301758 C32.00238609 18.0676127 34.4043742 19.54615312 36.80419922 21.02832031 C39.44911097 22.66012378 42.10021905 24.28098582 44.75390625 25.8984375 C45.98264098 26.66005629 47.2106164 27.42290282 48.4375 28.1875 C49.42621094 28.79980469 50.41492188 29.41210938 51.43359375 30.04296875 C55.5977486 33.21837451 59.09809091 36.65885758 60 42 C59.87351319 44.0407142 59.74009483 46.08156115 59.55136108 48.11746216 C57.42176763 66.48301509 57.42176763 66.48301509 62.07873535 83.77722168 C67.87744358 90.62128458 77.05357169 93.99427868 85.14208984 97.33154297 C91.15994529 99.85299497 96.66060168 103.28364634 102.25 106.625 C104.37881881 107.84877449 106.5090232 109.07014195 108.640625 110.2890625 C115.17099746 114.06991047 121.599924 118.00318939 128 122 C128.96067383 122.59893066 129.92134766 123.19786133 130.91113281 123.81494141 C136.37616053 127.25485245 141.60690798 130.85218278 146.7109375 134.8125 C148.95403957 136.23035451 148.95403957 136.23035451 151.5793457 135.80834961 C155.13052913 134.62247283 158.08570012 132.60898104 161.1875 130.5625 C167.30107217 126.62864314 173.50748801 122.94589314 179.875 119.4375 C180.65383545 119.00832275 181.4326709 118.57914551 182.23510742 118.13696289 C188.54024 114.67962631 192.64207334 113.18872076 200 114 C203.04242462 115.04272808 205.64517938 116.5643334 208.375 118.25 C209.13321045 118.69456543 209.8914209 119.13913086 210.67260742 119.59716797 C213.12802208 121.04412216 215.56360404 122.52128736 218 124 C219.71641478 125.01996975 221.43387451 126.03818298 223.15234375 127.0546875 C227.36462717 129.5538432 231.55396154 132.08883319 235.73779297 134.63525391 C237.79414159 135.87580957 239.86290918 137.09002316 241.94140625 138.29296875 C255.40368514 146.21105542 255.40368514 146.21105542 258 154 C258.10354845 155.9156801 258.14855127 157.83473846 258.16113281 159.75317383 C258.17074036 160.9348262 258.1803479 162.11647858 258.19024658 163.3339386 C258.19449646 164.61205917 258.19874634 165.89017975 258.203125 167.20703125 C258.20882507 168.52031906 258.21452515 169.83360687 258.22039795 171.18669128 C258.23089838 173.96829617 258.23674706 176.74987223 258.24023438 179.53149414 C258.24571219 183.08568519 258.26972847 186.63949181 258.29820633 190.19356251 C258.32137871 193.5938778 258.32328553 196.99414111 258.328125 200.39453125 C258.3404718 201.66657913 258.3528186 202.93862701 258.36553955 204.2492218 C258.36253845 205.44033066 258.35953735 206.63143951 258.35644531 207.85864258 C258.36009094 208.90216385 258.36373657 209.94568512 258.36749268 211.02082825 C257.61995527 217.08092816 254.5572478 221.1361176 250 225 C246.39338423 227.39315437 242.68122104 229.57937347 238.9375 231.75 C237.94427734 232.33910156 236.95105469 232.92820312 235.92773438 233.53515625 C228.96560112 237.61398179 223.22837842 240.28345591 215 239 C211.86584068 237.34346759 209.76559251 235.00919013 207.625 232.1875 C206.62558079 228.68953275 206.25345954 225.5488666 207 222 C210.06490349 216.76967798 214.05510365 214.2526743 219.49525452 211.93075562 C224.18108442 209.84317248 228.86402869 207.69978267 230.94122314 202.76306152 C232.3064733 196.35053713 231.88972203 189.87928406 231.5625 183.375 C231.52539522 181.39726649 231.49602725 179.41937184 231.47460938 177.44140625 C231.40568339 172.62112545 231.23181854 167.81508421 231 163 C230.13576416 162.74025391 229.27152832 162.48050781 228.38110352 162.21289062 C224.93493629 160.97665994 222.0527316 159.45207065 218.90234375 157.59375 C217.20561523 156.60181641 217.20561523 156.60181641 215.47460938 155.58984375 C214.2953092 154.8936757 213.11627494 154.19705702 211.9375 153.5 C209.6157123 152.13117299 207.2909865 150.76770035 204.96484375 149.40625 C203.42751587 148.49842773 203.42751587 148.49842773 201.85913086 147.57226562 C200.91561768 147.05341797 199.97210449 146.53457031 199 146 C198.1735498 145.53972412 197.34709961 145.07944824 196.49560547 144.60522461 C192.83874373 143.71837661 191.28466355 145.00334794 188.10546875 146.91015625 C186.98462891 147.57080078 185.86378906 148.23144531 184.70898438 148.91210938 C183.53494165 149.6285547 182.36111486 150.345354 181.1875 151.0625 C180.02637226 151.75360504 178.86427019 152.44307588 177.70117188 153.13085938 C174.45296232 155.0648936 171.22070632 157.02052861 168 159 C167.3304746 159.30729758 166.66094919 159.61459517 165.97113514 159.9312048 C161.63063554 162.10465358 161.63063554 162.10465358 159.25865459 166.14721775 C158.97643765 168.83073705 158.94407463 171.41547691 159 174.11328125 C158.9836853 175.56760811 158.9836853 175.56760811 158.96704102 177.05131531 C158.94090323 180.13951025 158.96971266 183.22439361 159 186.3125 C158.99190776 188.40952234 158.98023024 190.50653412 158.96484375 192.60351562 C158.93500378 197.73648193 158.95442831 202.86717159 159 208 C158.13015032 208.00146656 157.26030064 208.00293312 156.36409187 208.00444412 C135.12749016 208.04161337 113.89104676 208.10076134 92.65457344 208.18390274 C82.38445931 208.22358915 72.11442066 208.2560342 61.84423828 208.27099609 C52.885159 208.28406679 43.9262465 208.31116842 34.9672612 208.35461307 C30.23040517 208.37710684 25.49375392 208.39291801 20.75683975 208.39188385 C16.28336621 208.39113002 11.81034326 208.40936619 7.33698654 208.44116783 C5.70943513 208.44957294 4.08183261 208.45148205 2.45426941 208.44580269 C-24.7443167 208.36365607 -50.59492829 216.79117903 -70.24609375 236.05078125 C-89.23796903 255.717394 -94.72997155 281.08242102 -94.30859375 307.5 C-93.49063623 330.85082036 -83.46166522 352.84184201 -66.4609375 368.91796875 C-48.42117914 384.18017701 -26.77025596 393.32380973 -3.0234375 393.30078125 C-2.01391022 393.30506638 -1.00438293 393.3093515 0.03573608 393.31376648 C2.15841935 393.31946937 4.28112215 393.32004016 6.40380859 393.31567383 C9.5963809 393.3125282 12.78801144 393.33597553 15.98046875 393.36132812 C44.49039219 393.45151345 67.34072879 386.8854565 90 369 C90.63550781 368.53207031 91.27101563 368.06414062 91.92578125 367.58203125 C106.9225675 355.94967915 113.9637001 338.62704964 119 321 C78.41 320.67 37.82 320.34 -4 320 C-4 307.46 -4 294.92 -4 282 C15.84510096 281.93227284 35.6901083 281.87701228 55.53529549 281.84456348 C64.7498094 281.82909632 73.96424639 281.80800966 83.17871094 281.77368164 C91.21028345 281.74377469 99.24180025 281.7244239 107.27342689 281.71773452 C111.52590257 281.71382445 115.77821888 281.7046384 120.03064346 281.68280983 C124.03446594 281.6624242 128.03806361 281.65617038 132.04193306 281.66067696 C133.51007751 281.65985268 134.9782296 281.65389929 136.44632912 281.64238358 C138.45416425 281.62740876 140.46212042 281.63284528 142.47000122 281.63923645 C143.59274508 281.63647107 144.71548893 281.63370569 145.87225533 281.63085651 C150.75324599 282.20692205 153.99123545 283.90944373 157.3125 287.5 C159.94093426 291.39397669 160.10388719 294.18106163 159.98999023 298.7645874 C159.96365005 299.96708633 159.93730988 301.16958527 159.91017151 302.40852356 C159.88539828 303.3820172 159.88539828 303.3820172 159.86012459 304.37517738 C159.77004904 307.9374274 159.69841752 311.50006717 159.62451172 315.06268311 C159.60023086 316.20300421 159.60023086 316.20300421 159.57545948 317.36636209 C159.35543959 327.97178528 159.27060268 338.57900396 159.17797852 349.18616867 C159.09865413 357.82085796 158.97307204 366.45046354 158.74169922 375.08251953 C158.53978847 382.62259712 158.42773317 390.15804402 158.41942501 397.70090508 C158.41186379 401.68959211 158.36132687 405.6665822 158.20211792 409.65233612 C157.07333545 426.26442622 157.07333545 426.26442622 163.45178223 440.78175354 C169.43023529 445.59207594 175.98234944 448.80536642 183.04845047 451.71241093 C185.78590566 452.90660311 188.15205816 454.24813091 190.64129639 455.8868866 C193.71697208 458.34457729 193.71697208 458.34457729 196.57519531 457.55493164 C197.77547363 456.78524048 197.77547363 456.78524048 199 456 C200.06057617 455.41532959 201.12115234 454.83065918 202.21386719 454.22827148 C203.4103354 453.52951726 204.60457448 452.8269359 205.796875 452.12109375 C206.43111389 451.74896255 207.06535278 451.37683136 207.71881104 450.99342346 C209.05097143 450.21087623 210.38215345 449.42666133 211.71240234 448.64086914 C213.75522038 447.43441694 215.80116107 446.23340515 217.84765625 445.03320312 C219.14341448 444.27114835 220.43899383 443.5087893 221.734375 442.74609375 C222.34786804 442.3856749 222.96136108 442.02525604 223.59344482 441.65391541 C226.46116525 440.0500695 226.46116525 440.0500695 229 438 C232.8235043 415.95771335 232.8235043 415.95771335 227.79345703 395.12017822 C221.66395326 388.30414348 212.57735301 384.68047675 204.13793945 381.59106445 C199.78392495 379.3833999 197.20745788 376.41491577 195 372 C194.59748702 366.7673313 194.97715482 363.34533994 198 359 C201.56431733 355.74525953 205.19837214 353.55881942 210.125 353.6875 C217.12719243 355.01448063 223.05616358 359.27316553 229 363 C230.33756348 363.82564453 230.33756348 363.82564453 231.70214844 364.66796875 C234.66261321 366.49681198 237.61415561 368.33918656 240.5625 370.1875 C241.51471436 370.78135498 242.46692871 371.37520996 243.44799805 371.98706055 C255.61666302 379.72012423 255.61666302 379.72012423 258 387 C258.26069641 389.87669373 258.26069641 389.87669373 258.2746582 393.07202148 C258.28419022 394.27354355 258.29372223 395.47506561 258.30354309 396.71299744 C258.30263168 398.00266922 258.30172028 399.292341 258.30078125 400.62109375 C258.30467207 401.9672102 258.30900754 403.31332543 258.31376648 404.65943909 C258.32121321 407.47620632 258.32094867 410.29284817 258.31567383 413.10961914 C258.30988046 416.70862455 258.32681386 420.3071151 258.3500185 423.90603542 C258.36479266 426.68482941 258.36562259 429.46350043 258.36250877 432.24232674 C258.36326769 434.21092624 258.37710976 436.17950674 258.39118958 438.14805603 C258.38184639 439.95506737 258.38184639 439.95506737 258.37231445 441.79858398 C258.37294388 442.85383774 258.3735733 443.90909149 258.3742218 444.99632263 C257.8354523 449.32073603 256.27007152 452.6884711 253.23486328 455.82275391 C246.44362474 460.91333755 239.22331463 465.15847997 231.875 469.375 C229.92999879 470.50032955 227.98624433 471.62779233 226.04251099 472.75531006 C224.77317816 473.49133845 223.50338853 474.22657966 222.23312378 474.96099854 C216.28821265 478.40044195 210.41314252 481.94725399 204.5546875 485.53125 C199.82555574 488.25013921 195.34886698 488.80272744 190 488 C185.75745912 486.42384311 181.92091213 484.2475149 178 482 C177.33339355 481.61956543 176.66678711 481.23913086 175.97998047 480.84716797 C163.25414579 473.55659738 163.25414579 473.55659738 157.64453125 469.765625 C156.21173828 468.79882812 156.21173828 468.79882812 154.75 467.8125 C153.94046875 467.24144531 153.1309375 466.67039062 152.296875 466.08203125 C150.07919227 464.84086209 150.07919227 464.84086209 147.71875 464.984375 C143.6338057 466.51035994 140.3091441 468.94838797 136.75 471.4375 C130.97495978 475.37968377 125.1812454 479.19128173 119.125 482.6875 C113.87679848 485.72046569 108.6612188 488.79802359 103.48046875 491.9453125 C102.6112957 492.47135574 102.6112957 492.47135574 101.7245636 493.00802612 C98.69591338 494.84503932 95.68550616 496.70484774 92.69848633 498.60888672 C87.02451209 502.19173724 81.74041584 505.26186755 75.34375 507.4375 C66.21335096 510.82085978 66.21335096 510.82085978 60 518 C57.79039511 527.14179782 58.35915559 536.99312593 58.84692383 546.30981445 C58.89089294 547.27334839 58.93486206 548.23688232 58.98016357 549.22961426 C59.07673645 551.06128902 59.20944183 552.89154579 59.38433838 554.71740723 C59.68591981 559.72676267 59.15195097 562.45791742 55.88720703 566.36694336 C52.76765517 569.49473121 49.53274552 571.89847451 45.67578125 574.078125 C45.09555206 574.41205261 44.51532288 574.74598022 43.91751099 575.09002686 C42.05670491 576.15725068 40.18510615 577.20364685 38.3125 578.25 C37.01675921 578.98800489 35.72192563 579.72760476 34.42797852 580.46875 C32.47952114 581.58447592 30.53052989 582.69909672 28.57817078 583.8079834 C21.96380314 587.56747514 15.46654087 591.51477467 8.99145508 595.50878906 C8.25048584 595.95963867 7.5095166 596.41048828 6.74609375 596.875 C6.11372803 597.26429688 5.4813623 597.65359375 4.82983398 598.0546875 C0.67103974 600.20316666 -3.37549601 600.44753264 -8 600 C-16.34550872 596.63074981 -23.97834106 591.5100272 -31.625 586.8125 C-32.86904988 586.0509585 -34.11319119 585.28956636 -35.35742188 584.52832031 C-37.79738129 583.03446516 -40.23560782 581.53783166 -42.67285156 580.03955078 C-45.52169824 578.29320024 -48.378758 576.5621174 -51.2421875 574.83984375 C-52.66171228 573.97698013 -54.08100898 573.1137411 -55.5 572.25 C-56.12084473 571.88108643 -56.74168945 571.51217285 -57.38134766 571.13208008 C-62.06202543 568.25120098 -65.24344736 565.26965792 -67 560 C-67.0583989 558.6248258 -67.06134549 557.24684321 -67.02734375 555.87084961 C-66.94382134 551.22878142 -66.95360914 546.59399731 -66.99609375 541.95141602 C-66.99868189 539.95450309 -66.97298545 537.95733822 -66.91796875 535.96118164 C-66.29384236 524.90367349 -66.29384236 524.90367349 -70.57788086 515.18789673 C-74.61733508 511.98209894 -79.14335827 509.92193607 -83.87402344 507.93405151 C-86.78380916 506.65563208 -89.37605229 505.00828598 -92.03125 503.26953125 C-92.93069336 502.70218262 -93.83013672 502.13483398 -94.75683594 501.55029297 C-95.66208008 500.97682129 -96.56732422 500.40334961 -97.5 499.8125 C-105.85145964 494.55282872 -114.26706781 489.41964777 -122.75 484.375 C-133.68861009 477.86406528 -144.39487594 471.03949965 -155 464 C-159.54026605 466.55282884 -163.94956647 469.21247627 -168.3125 472.0625 C-174.07041583 475.79891792 -179.89202567 479.42263346 -185.75 483 C-186.53673096 483.48090088 -187.32346191 483.96180176 -188.1340332 484.45727539 C-194.47544718 488.31917215 -198.40683123 489.96935382 -206 489 C-215.13872454 485.38404156 -223.52576327 479.82515434 -231.875 474.6875 C-233.11590175 473.9272213 -234.35686902 473.16704952 -235.59790039 472.40698242 C-238.00238609 470.9323873 -240.4043742 469.45384688 -242.80419922 467.97167969 C-245.44911097 466.33987622 -248.10021905 464.71901418 -250.75390625 463.1015625 C-251.98264098 462.33994371 -253.2106164 461.57709718 -254.4375 460.8125 C-255.42621094 460.20019531 -256.41492188 459.58789062 -257.43359375 458.95703125 C-261.36052741 455.96252019 -264.41027849 452.76916452 -266 448 C-266.11309252 446.156399 -266.16910886 444.30907182 -266.19287109 442.4621582 C-266.20893402 441.32700272 -266.22499695 440.19184723 -266.24154663 439.02229309 C-266.2860768 433.82583487 -266.3275061 428.62946317 -266.35009766 423.43286133 C-266.36340888 420.69456365 -266.39121038 417.95701617 -266.43212891 415.21899414 C-266.49117602 411.26711208 -266.50878904 407.31558918 -266.5234375 403.36328125 C-266.54610687 402.1453035 -266.56877625 400.92732574 -266.59213257 399.67243958 C-266.57430928 392.47494725 -265.89099749 387.47409008 -261 382 C-258.8449707 379.99511719 -258.8449707 379.99511719 -256.61328125 378.546875 C-255.74396973 377.97904297 -254.8746582 377.41121094 -253.97900391 376.82617188 C-248.09448662 373.21887887 -242.1622619 369.70555539 -236.1875 366.25 C-234.87801669 365.48869137 -233.56877049 364.72697474 -232.25976562 363.96484375 C-229.86498872 362.57067419 -227.46866148 361.17933467 -225.07104492 359.79003906 C-224.0576001 359.19932617 -223.04415527 358.60861328 -222 358 C-221.12958572 357.66997482 -220.25917145 357.33994965 -219.36238098 356.99992371 C-216.61495706 354.67403374 -216.60043796 354.17053341 -216.27087402 350.73377991 C-216.19828651 348.89375348 -216.15381994 347.05249612 -216.13085938 345.21118164 C-216.09960968 344.20589417 -216.06835999 343.20060669 -216.03616333 342.16485596 C-215.94254299 338.8299053 -215.88914122 335.49609522 -215.84375 332.16015625 C-215.82462051 331.01946623 -215.80549103 329.87877621 -215.78578186 328.70351982 C-215.68729189 322.65971045 -215.62089976 316.61647702 -215.57910156 310.57202148 C-215.5294707 304.34466552 -215.36808806 298.12554486 -215.18044281 291.90104008 C-215.05678655 287.10080619 -215.01850476 282.30250964 -215.00263977 277.50082207 C-214.9802145 275.20754897 -214.92590576 272.91434578 -214.83830261 270.6226368 C-214.05019422 258.4967219 -214.05019422 258.4967219 -218.85162735 247.87979889 C-223.3771866 244.12493993 -228.35755783 241.50228517 -233.6914711 239.08054543 C-236.95117852 237.55478504 -239.89640396 235.69191771 -242.9296875 233.7578125 C-245.93358191 231.92059192 -248.93864093 230.08676705 -251.95703125 228.2734375 C-263.63637655 221.09087035 -263.63637655 221.09087035 -266 214 C-266.11325748 212.1257717 -266.16913718 210.24785851 -266.19287109 208.37036133 C-266.21696548 206.63759697 -266.21696548 206.63759697 -266.24154663 204.86982727 C-266.28606891 199.58175193 -266.32750593 194.29382441 -266.35009766 189.00561523 C-266.36340985 186.21882098 -266.3912132 183.43276369 -266.43212891 180.64624023 C-266.49116719 176.62471301 -266.50878723 172.6039696 -266.5234375 168.58203125 C-266.54610687 167.34217972 -266.56877625 166.10232819 -266.59213257 164.8249054 C-266.57465763 157.64532964 -265.95416207 152.44411594 -261 147 C-258.77980759 145.24752042 -256.86440746 143.92490154 -254.4375 142.5625 C-253.02849454 141.72681754 -251.61965446 140.89085621 -250.2109375 140.0546875 C-249.4075293 139.58643555 -248.60412109 139.11818359 -247.77636719 138.63574219 C-244.50930584 136.7108995 -241.27286936 134.73775735 -238.0390625 132.7578125 C-236.79634673 131.9978978 -235.55358922 131.23805136 -234.31079102 130.47827148 C-233.69019806 130.09887421 -233.0696051 129.71947693 -232.4302063 129.32858276 C-206.33200255 113.38377898 -206.33200255 113.38377898 -198 114 C-195.48651362 115.04823807 -193.33165705 116.08686607 -191 117.4375 C-190.3598999 117.79368408 -189.7197998 118.14986816 -189.06030273 118.5168457 C-187.02792432 119.65784312 -185.01214175 120.82371555 -183 122 C-181.99864014 122.58491211 -181.99864014 122.58491211 -180.97705078 123.18164062 C-175.01195444 126.68658883 -169.10500475 130.24407746 -163.375 134.125 C-160.32167278 136.19348721 -160.32167278 136.19348721 -157.79296875 135.94921875 C-153.69114914 134.55517377 -150.46939555 132.15909644 -146.9375 129.6875 C-134.87770463 121.46084345 -122.33297725 114.12179104 -109.7421875 106.74609375 C-109.10918228 106.37523148 -108.47617706 106.0043692 -107.82398987 105.62226868 C-104.69725155 103.79097078 -101.56921976 101.96196406 -98.43823242 100.13793945 C-91.57656539 96.13481338 -84.77686185 92.04940418 -78.03295898 87.85058594 C-75 86 -75 86 -73.09420776 85.20736694 C-70.85164006 84.2936069 -70.85164006 84.2936069 -68 82 C-66.99912634 78.88222033 -67.11564185 75.88290465 -67.203125 72.6328125 C-67.19536041 71.26429642 -67.19536041 71.26429642 -67.18743896 69.86813354 C-67.1755402 66.95265665 -67.21006589 64.04019039 -67.25 61.125 C-67.26878252 58.21756201 -67.2774747 55.31078008 -67.26971436 52.40328979 C-67.2670463 50.59571923 -67.28065364 48.78802998 -67.31280518 46.98074341 C-67.33002348 41.89149691 -66.90119839 38.37158497 -64 34 C-58.49974098 28.49832685 -51.38788889 24.66085117 -44.6875 20.8125 C-42.7560847 19.68823103 -40.82510538 18.56321279 -38.89453125 17.4375 C-37.43394287 16.58865234 -37.43394287 16.58865234 -35.94384766 15.72265625 C-30.37775299 12.46553534 -24.86390835 9.12108247 -19.34643555 5.7824707 C-18.56953369 5.31413818 -17.79263184 4.84580566 -16.9921875 4.36328125 C-16.31526855 3.95376221 -15.63834961 3.54424316 -14.94091797 3.12231445 C-9.69374042 0.08819179 -6.06374003 -0.9232653 0 0 Z " fill="#0C2E73" transform="translate(516,178)"/>
<path d="M0 0 C2.27897914 1.21994279 4.48197292 2.46647892 6.65820312 3.86108398 C7.46217529 4.36994141 8.26614746 4.87879883 9.09448242 5.40307617 C9.955979 5.95125 10.81747559 6.49942383 11.70507812 7.06420898 C34.0431153 23.32769466 34.0431153 23.32769466 59.45507812 29.31420898 C64.88879438 27.36610814 69.68278457 24.20352317 74.50585938 21.07983398 C80.49341595 17.25115547 86.6110047 13.67515514 92.76757812 10.12670898 C94.84804479 8.92668657 96.92750413 7.72491577 99.00585938 6.52124023 C99.96314941 5.97032715 100.92043945 5.41941406 101.90673828 4.85180664 C104.00977075 3.58289511 105.92390683 2.24845719 107.87304688 0.76342773 C110.45507812 -0.68579102 110.45507812 -0.68579102 112.83789062 -0.22094727 C114.13339844 0.53895508 114.13339844 0.53895508 115.45507812 1.31420898 C116.02967773 1.63534668 116.60427734 1.95648438 117.19628906 2.28735352 C119.26112896 3.45188161 121.29589185 4.65946776 123.33007812 5.87670898 C124.08546875 6.32506104 124.84085938 6.77341309 125.61914062 7.23535156 C127.90021961 8.59093825 130.17812985 9.95169777 132.45507812 11.31420898 C133.06641602 11.67933594 133.67775391 12.04446289 134.30761719 12.4206543 C139.62554561 15.59810897 144.9323897 18.79395727 150.23828125 21.99145508 C152.30984136 23.23950693 154.38222013 24.48620071 156.45532227 25.73168945 C158.6198383 27.03550506 160.78050892 28.34572622 162.93725586 29.66235352 C167.97338411 32.71911558 172.99287254 35.64358173 178.28710938 38.23217773 C179.61790527 38.90917725 179.61790527 38.90917725 180.97558594 39.59985352 C182.61773659 40.42471405 184.28243078 41.20674397 185.96972656 41.93481445 C188.4638024 43.21494493 189.75752546 44.0682681 191.45507812 46.31420898 C191.77513123 49.69371033 191.77513123 49.69371033 191.65991211 53.51708984 C191.6303392 54.78717392 191.6007663 56.057258 191.57029724 57.36582947 C191.53227493 58.33879471 191.49425262 59.31175995 191.45507812 60.31420898 C190.30988079 60.31779151 190.30988079 60.31779151 189.14154816 60.32144642 C170.50101131 60.38077381 151.86060487 60.45643607 133.22020721 60.5499239 C124.20557327 60.59474792 115.19097766 60.63419288 106.17626953 60.66064453 C98.31226305 60.68373372 90.44837924 60.71725193 82.58447027 60.76291054 C78.42674329 60.78669667 74.26913668 60.80552052 70.11134338 60.81182289 C66.18456124 60.81794072 62.25808652 60.83817651 58.33141899 60.8684845 C56.9029855 60.87715892 55.47451164 60.8810098 54.04605293 60.87921715 C26.30500016 60.85543088 -1.70416914 70.02770862 -23.54492188 87.31420898 C-24.14256348 87.78310547 -24.74020508 88.25200195 -25.35595703 88.73510742 C-51.56516067 109.59177475 -69.37032399 140.925171 -73.54492188 174.31420898 C-73.86675278 179.65020096 -73.93492603 184.97098838 -73.91992188 190.31420898 C-73.91937805 191.04276093 -73.91883423 191.77131287 -73.91827393 192.52194214 C-73.8783704 204.16243829 -73.09406881 215.16511249 -69.54492188 226.31420898 C-69.32529785 227.00708008 -69.10567383 227.69995117 -68.87939453 228.41381836 C-62.35205796 248.31457274 -51.96332363 265.21182233 -37.54492188 280.31420898 C-37.02027344 280.90202148 -36.495625 281.48983398 -35.95507812 282.09545898 C-12.59788082 307.29508152 23.34287178 318.75225617 56.78735352 320.10351562 C59.34307527 320.18584727 61.89880392 320.25157662 64.45507812 320.31420898 C65.72955811 320.35505615 65.72955811 320.35505615 67.02978516 320.39672852 C109.2372271 321.66414745 146.93761522 308.19170726 178.11914062 279.53295898 C181.63392375 276.19450277 185.07024822 272.78413238 188.45507812 269.31420898 C190.62860982 271.0495853 191.39141837 272.01796011 191.98406982 274.77593994 C192.08718475 276.24362823 192.08718475 276.24362823 192.19238281 277.7409668 C192.27170044 278.85392624 192.35101807 279.96688568 192.43273926 281.11357117 C193.06163235 292.94499296 193.44447094 304.72971191 193.11132812 316.57592773 C193.11166046 318.41075714 193.11166046 318.41075714 193.11199951 320.28265381 C192.78740835 327.33006712 191.5118996 331.04449672 186.4074707 336.04467773 C181.41461027 340.36041884 176.40762029 342.15131746 170.15576172 344.01977539 C164.17476674 346.11182153 159.10119936 349.49995718 153.80279541 352.92144775 C150.89071677 354.78554049 147.92688886 356.56292266 144.96679688 358.34936523 C138.69675781 362.16499901 132.43279533 365.99049507 126.17260742 369.82226562 C120.95146837 373.01648503 115.71406369 376.182602 110.45507812 379.31420898 C103.15341384 375.37645508 96.05799488 371.10785017 88.95751953 366.82299805 C84.26064181 363.99112446 79.55898732 361.16720187 74.85693359 358.34393311 C73.15746718 357.32315207 71.45861359 356.30135099 69.75976562 355.27954102 C68.71433594 354.65160645 67.66890625 354.02367187 66.59179688 353.37670898 C65.65037842 352.81081055 64.70895996 352.24491211 63.73901367 351.66186523 C59.52887446 349.17763558 56.30693863 348.46235561 51.45507812 349.31420898 C37.32849668 354.69485845 24.24050402 364.11453578 11.72851562 372.44702148 C11.00325684 372.92228271 10.27799805 373.39754395 9.53076172 373.88720703 C8.18198746 374.77385716 6.84300866 375.67565687 5.51611328 376.59472656 C1.16760559 379.43843252 1.16760559 379.43843252 -1.91992188 378.90014648 C-2.78617187 378.37678711 -3.65242188 377.85342773 -4.54492188 377.31420898 C-5.49625 376.77147339 -5.49625 376.77147339 -6.46679688 376.21777344 C-8.84896394 374.84797458 -11.19716384 373.42965172 -13.54492188 372.00170898 C-14.42937988 371.46755371 -15.31383789 370.93339844 -16.22509766 370.38305664 C-23.16588335 366.18034533 -30.0612996 361.90576916 -36.94726562 357.61401367 C-42.38928975 354.23378735 -47.86411329 350.91341128 -53.36523438 347.63061523 C-54.04077362 347.22717896 -54.71631287 346.82374268 -55.412323 346.40808105 C-58.77350883 344.40184185 -62.13747549 342.4004716 -65.50537109 340.40551758 C-66.7477888 339.6655592 -67.990142 338.9254925 -69.23242188 338.18530273 C-70.32941406 337.53489014 -71.42640625 336.88447754 -72.55664062 336.21435547 C-73.54277344 335.58730713 -74.52890625 334.96025879 -75.54492188 334.31420898 C-76.95342407 333.56868774 -76.95342407 333.56868774 -78.39038086 332.80810547 C-81.98942169 328.64219022 -81.30444465 323.86358317 -81.33007812 318.54077148 C-81.35790878 317.38427094 -81.38573944 316.22777039 -81.41441345 315.03622437 C-81.50185582 311.33726709 -81.55767998 307.63885253 -81.60742188 303.93920898 C-81.66249937 300.24685233 -81.72494442 296.55538479 -81.81114197 292.86361694 C-81.86442574 290.56679363 -81.89978262 288.26946695 -81.91505432 285.97207642 C-82.05431529 279.78974505 -82.39718379 276.01543038 -86.54492188 271.31420898 C-90.91316974 267.24089756 -96.21074171 264.34303897 -101.29492188 261.25170898 C-103.92406549 259.64951129 -106.54138498 258.04319955 -109.12503052 256.36830139 C-111.68515151 254.83061363 -114.07419116 253.59210793 -116.7729187 252.36827087 C-122.27334292 249.67136484 -128.03059112 246.83090891 -130.55915833 240.95886803 C-132.23692069 233.98855621 -132.02959446 226.85334209 -131.94335938 219.72827148 C-131.96500552 217.42096526 -131.99109263 215.11369685 -132.02139282 212.80648804 C-132.06438325 207.98167371 -132.04429165 203.16219556 -131.98095703 198.33764648 C-131.90650176 192.17993143 -132.00366449 186.03880557 -132.1504879 179.88288307 C-132.24238355 175.12028297 -132.2350002 170.36159944 -132.19929886 165.59840012 C-132.19537634 163.33144196 -132.22329038 161.06417897 -132.28486252 158.79805374 C-132.67828018 141.64734263 -132.67828018 141.64734263 -127.46204567 136.09853363 C-122.38923674 132.08226656 -116.85617439 129.16738172 -110.99749565 126.46737289 C-107.84662431 124.9858798 -104.97989071 123.23948978 -102.04101562 121.37670898 C-99.47704446 119.82336819 -96.91239394 118.27255399 -94.3359375 116.73999023 C-89.21845498 113.62158569 -85.29624445 110.81685414 -82.54492188 105.31420898 C-82.47620465 103.53266978 -82.47189034 101.74848881 -82.49829102 99.96582031 C-82.51678856 98.28816338 -82.51678856 98.28816338 -82.53565979 96.57661438 C-82.55764687 94.75482918 -82.55764687 94.75482918 -82.58007812 92.89624023 C-82.58768132 89.66981209 -82.58989453 86.44343528 -82.58976078 83.21700001 C-82.59275416 79.83904372 -82.61334191 76.46293595 -82.67163086 73.08544922 C-82.72908062 69.18768562 -82.72276753 65.29429651 -82.70507812 61.39624023 C-82.73795425 60.19183792 -82.77083038 58.98743561 -82.80470276 57.74653625 C-82.68873034 49.54490148 -82.68873034 49.54490148 -79.47727966 46.08950806 C-76.91271806 44.26191102 -74.33916216 42.76180969 -71.54492188 41.31420898 C-70.36504159 40.59386072 -69.18850479 39.86796855 -68.01733398 39.13354492 C-66.96296143 38.52800781 -65.90858887 37.9224707 -64.82226562 37.29858398 C-63.62123367 36.60371787 -62.42022539 35.90881081 -61.21923828 35.21386719 C-60.6089679 34.86297028 -59.99869751 34.51207336 -59.36993408 34.15054321 C-50.69065423 29.1552914 -42.03262882 24.14124001 -33.66992188 18.62670898 C-26.91234501 14.19682833 -20.13599046 9.80200704 -13.29492188 5.50170898 C-12.30508301 4.85951416 -11.31524414 4.21731934 -10.29541016 3.55566406 C-8.89524658 2.68397583 -8.89524658 2.68397583 -7.46679688 1.79467773 C-6.63760742 1.26769287 -5.80841797 0.74070801 -4.95410156 0.19775391 C-2.54492188 -0.68579102 -2.54492188 -0.68579102 0 0 Z " fill="#FEFEFE" transform="translate(457.544921875,288.685791015625)"/>
<path d="M0 0 C3.10495002 1.24645662 5.93067411 2.90698471 8.79638672 4.61621094 C9.42729721 4.98738541 10.0582077 5.35855988 10.70823669 5.74098206 C12.71828077 6.92519443 14.72408297 8.1163975 16.72998047 9.30761719 C18.08323663 10.10558341 19.43674961 10.90311428 20.79052734 11.70019531 C30.54245367 17.45343266 30.54245367 17.45343266 34.16748047 19.87011719 C35.07349055 25.69467481 35.19413512 31.52820233 35.32763672 37.41601562 C35.38714063 39.37253009 35.48240997 41.32830947 35.61474609 43.28125 C36.48215616 56.1916413 36.48215616 56.1916413 34.16748047 61.87011719 C30.19924351 66.40161934 24.67097249 68.66462762 19.21984863 70.95996094 C16.57935085 72.13093289 14.30532677 73.63957812 11.96435547 75.32324219 C11.27470703 75.79632813 10.58505859 76.26941406 9.87451172 76.75683594 C8.51624537 77.70301349 7.16513225 78.65951023 5.81982422 79.62402344 C0.86475652 82.98740591 0.86475652 82.98740591 -2.36376953 82.44433594 C-3.17845703 81.92484375 -3.99314453 81.40535156 -4.83251953 80.87011719 C-5.95142578 80.21140625 -7.07033203 79.55269531 -8.22314453 78.87402344 C-10.22513497 77.62720629 -12.20033856 76.35353546 -14.15869141 75.0390625 C-17.91801377 72.54702302 -21.38785425 70.57678161 -25.66064453 69.10058594 C-30.97629184 67.00952418 -34.98169625 65.00291111 -37.83251953 59.87011719 C-41.22190523 48.3382474 -41.23861051 33.4013802 -37.83251953 21.87011719 C-34.60381198 16.16420214 -29.37482824 14.62244374 -23.38330078 12.81201172 C-18.64774024 11.06337154 -14.65982747 8.02333902 -10.52001953 5.18261719 C-8.95049275 4.12224069 -7.37166286 3.07543838 -5.78173828 2.04589844 C-4.78146606 1.37941284 -4.78146606 1.37941284 -3.76098633 0.69946289 C-1.83251953 -0.12988281 -1.83251953 -0.12988281 0 0 Z " fill="#FDFEFE" transform="translate(314.83251953125,322.1298828125)"/>
<path d="M0 0 C8.7874538 5.00320869 17.38179913 10.2972926 25.96362305 15.64331055 C26.84445557 16.19156494 27.72528809 16.73981934 28.6328125 17.3046875 C29.82221436 18.0469458 29.82221436 18.0469458 31.03564453 18.80419922 C32.97551395 20.02237563 32.97551395 20.02237563 35 21 C35.39829981 26.65509138 35.68690843 32.30191764 35.87890625 37.96777344 C35.95894992 39.88946695 36.06785147 41.81019815 36.20703125 43.72851562 C37.29965047 59.18586396 37.29965047 59.18586396 33.5340271 63.79394531 C29.74826123 66.98233159 25.47426549 69.07766924 20.97650146 71.08380127 C18.36447502 72.29459486 16.04661408 73.82676357 13.67578125 75.453125 C12.22138413 76.38546341 10.76695859 77.31775749 9.3125 78.25 C8.56806641 78.74628906 7.82363281 79.24257813 7.05664062 79.75390625 C6.33283203 80.21152344 5.60902344 80.66914062 4.86328125 81.140625 C3.92415894 81.75212402 3.92415894 81.75212402 2.96606445 82.37597656 C0.04679919 83.30254331 -1.30308929 82.36463583 -4 81 C-6.08042607 79.84919925 -8.14011156 78.66050612 -10.18359375 77.4453125 C-10.76158218 77.10249237 -11.33957062 76.75967224 -11.93507385 76.40646362 C-13.15213612 75.68363176 -14.36817976 74.95908233 -15.58325195 74.23291016 C-17.42620419 73.13174923 -19.27236404 72.03613861 -21.11914062 70.94140625 C-24.42274932 68.97675817 -27.72430145 67.01106134 -31 65 C-32.09441406 64.43200684 -33.18882812 63.86401367 -34.31640625 63.27880859 C-37.3920189 60.66711205 -37.83477021 59.02747446 -38.16453552 55.05986023 C-38.20877403 53.90101067 -38.20877403 53.90101067 -38.25390625 52.71875 C-38.29818253 51.91254715 -38.3424588 51.1063443 -38.38807678 50.27571106 C-38.49921107 47.68205151 -38.54336238 45.09590725 -38.5625 42.5 C-38.57214783 41.62596527 -38.58179565 40.75193054 -38.59173584 39.85140991 C-38.57899602 25.74434227 -38.57899602 25.74434227 -35.39892578 20.21728516 C-31.23428359 16.0727766 -26.17263713 14.06026595 -20.71728516 12.08642578 C-16.06903283 10.22796012 -12.00639766 7.45274348 -7.8125 4.75 C-6.30109037 3.82335641 -4.7870398 2.90099663 -3.26953125 1.984375 C-2.19058594 1.32953125 -1.11164063 0.6746875 0 0 Z " fill="#FEFEFE" transform="translate(314,555)"/>
<path d="M0 0 C2.7449812 1.25956772 5.25916595 2.58413094 7.81030273 4.1965332 C8.69331055 4.74954102 9.57631836 5.30254883 10.48608398 5.87231445 C11.84540039 6.73663086 11.84540039 6.73663086 13.23217773 7.6184082 C15.02861789 8.74930758 16.82549169 9.87951842 18.62280273 11.0090332 C19.94368896 11.87866699 19.94368896 11.87866699 21.29125977 12.76586914 C23.92630273 14.44631382 23.92630273 14.44631382 26.82543945 15.41625977 C30.04100278 16.72321209 31.75035452 17.68244783 33.98217773 20.3684082 C35.78499233 25.98719234 35.67137859 31.94573643 35.61547852 37.78881836 C35.60721345 40.60623399 35.73694894 43.39477851 35.87670898 46.20825195 C36.13469659 58.8190739 36.13469659 58.8190739 32.4838562 63.14294434 C28.68835071 66.30499375 24.42986579 68.42144579 19.9486084 70.44616699 C17.3462241 71.66666568 15.02660022 73.1997695 12.65795898 74.8215332 C11.20356187 75.75387162 9.74913632 76.68616569 8.29467773 77.6184082 C7.55024414 78.11469727 6.80581055 78.61098633 6.03881836 79.12231445 C5.31500977 79.57993164 4.59120117 80.03754883 3.84545898 80.5090332 C2.90633667 81.12053223 2.90633667 81.12053223 1.94824219 81.74438477 C-0.97952192 82.67364902 -2.31235386 81.74420883 -5.01782227 80.3684082 C-7.19645873 79.13541034 -9.35216265 77.86148486 -11.49047852 76.55981445 C-12.09540634 76.19242661 -12.70033417 75.82503876 -13.32359314 75.44651794 C-14.59622078 74.67252717 -15.86773353 73.89670058 -17.13818359 73.11914062 C-19.07517697 71.93405618 -21.01590208 70.75528515 -22.95727539 69.57739258 C-29.83981083 65.3856538 -29.83981083 65.3856538 -33.01782227 63.3684082 C-33.78384766 62.96847656 -34.54987305 62.56854492 -35.33911133 62.15649414 C-38.09016665 59.22619612 -37.96989436 55.65579747 -38.21704102 51.81762695 C-38.27476685 50.9708136 -38.33249268 50.12400024 -38.39196777 49.25152588 C-38.54391737 46.51912647 -38.63783231 43.79166274 -38.70532227 41.0559082 C-38.72873688 40.13657501 -38.75215149 39.21724182 -38.77627563 38.27005005 C-38.93818339 23.2453738 -38.93818339 23.2453738 -34.92016602 17.22583008 C-29.67291003 12.53112019 -23.63757176 9.95395446 -17.05834961 7.62182617 C-12.79185042 5.86301721 -9.2660947 3.28244408 -5.58154297 0.53076172 C-3.01782227 -0.6315918 -3.01782227 -0.6315918 0 0 Z " fill="#FEFEFE" transform="translate(514.017822265625,208.631591796875)"/>
<path d="M0 0 C2.88762497 1.59284942 5.71928568 3.23030229 8.52392578 4.96630859 C9.07971817 5.30912872 9.63551056 5.65194885 10.20814514 6.00515747 C11.37825485 6.72785086 12.5472187 7.45240246 13.71508789 8.17871094 C15.48557506 9.27977586 17.25927154 10.37550136 19.03369141 11.47021484 C22.21659273 13.43861189 25.3966208 15.4104427 28.55908203 17.41162109 C29.64535889 17.97727783 30.73163574 18.54293457 31.85083008 19.12573242 C34.95091352 21.74234481 35.43814257 23.4442462 35.85137939 27.42755127 C35.89671814 28.21248962 35.94205688 28.99742798 35.98876953 29.80615234 C36.07514679 31.03685455 36.07514679 31.03685455 36.16326904 32.29241943 C36.31125177 34.93777493 36.38640537 37.57512789 36.43408203 40.22412109 C36.45444519 41.11533661 36.47480835 42.00655212 36.49578857 42.92477417 C36.61334617 57.44675966 36.61334617 57.44675966 32.33837891 63.61669922 C26.8182022 68.55052591 20.47813485 71.49573241 13.61474609 74.13476562 C9.68433266 75.77714835 6.29376748 77.98199004 2.79101562 80.38793945 C-0.08683321 81.70787165 -1.46418385 81.37135607 -4.44091797 80.41162109 C-7.6536854 78.57945533 -10.71455812 76.6406038 -13.76708984 74.55688477 C-17.54505458 72.03240086 -20.88468825 70.15018298 -25.26904297 68.89599609 C-30.61144093 67.14172671 -34.52431304 65.41634608 -37.44091797 60.41162109 C-41.20018298 48.80040086 -41.75545635 32.91830619 -37.44091797 21.41162109 C-32.29265109 14.18463267 -24.65285923 10.89304324 -16.57910156 7.77490234 C-12.28393721 5.90900863 -8.65286918 3.31881457 -4.8894043 0.55419922 C-2.44091797 -0.58837891 -2.44091797 -0.58837891 0 0 Z " fill="#FDFEFE" transform="translate(513.44091796875,666.58837890625)"/>
<path d="M0 0 C0.66 0.33 1.32 0.66 2 1 C0.625 2.5 0.625 2.5 -1 4 C-1.66 4 -2.32 4 -3 4 C-3.2475 4.61230469 -3.495 5.22460938 -3.75 5.85546875 C-5.227141 8.38968878 -6.37933646 9.06479438 -9 10.3125 C-9.70125 10.65925781 -10.4025 11.00601563 -11.125 11.36328125 C-12.053125 11.67845703 -12.053125 11.67845703 -13 12 C-13.66 11.67 -14.32 11.34 -15 11 C-13.50146484 9.93458984 -13.50146484 9.93458984 -11.97265625 8.84765625 C-10.66923542 7.91932055 -9.36585193 6.99093243 -8.0625 6.0625 C-7.40314453 5.59392578 -6.74378906 5.12535156 -6.06445312 4.64257812 C-2.89795165 2.48544482 -2.89795165 2.48544482 0 0 Z " fill="#0B1D65" transform="translate(606,547)"/>
<path d="M0 0 C0.99 0.66 1.98 1.32 3 2 C1.02 3.98 -0.96 5.96 -3 8 C-3.99 7.67 -4.98 7.34 -6 7 C-4.02 4.69 -2.04 2.38 0 0 Z " fill="#203779" transform="translate(423,384)"/>
<path d="M0 0 C0.33 0.66 0.66 1.32 1 2 C0.34 2 -0.32 2 -1 2 C-1.66 3.32 -2.32 4.64 -3 6 C-3.66 6 -4.32 6 -5 6 C-5.33 6.99 -5.66 7.98 -6 9 C-6.33 8.34 -6.66 7.68 -7 7 C-2.25 1.125 -2.25 1.125 0 0 Z " fill="#051661" transform="translate(259,557)"/>
<path d="M0 0 C3.59391114 1.33488128 6.75490696 2.96022723 10 5 C8 6 8 6 5 5.3125 C2 4 2 4 0.625 1.875 C0.41875 1.25625 0.2125 0.6375 0 0 Z " fill="#0E1E66" transform="translate(390,628)"/>
<path d="M0 0 C-5.75 4 -5.75 4 -8 4 C-7.67 2.68 -7.34 1.36 -7 0 C-2.25 -1.125 -2.25 -1.125 0 0 Z " fill="#0A1E65" transform="translate(360,408)"/>
<path d="M0 0 C0 0.33 0 0.66 0 1 C-1.918125 1.4640625 -1.918125 1.4640625 -3.875 1.9375 C-6.10101675 2.47605244 -7.94739999 2.9737 -10 4 C-10.66 3.34 -11.32 2.68 -12 2 C-8.09971775 -0.60018816 -4.52565431 -0.15085514 0 0 Z " fill="#08155C" transform="translate(515,178)"/>
</svg>
